<mxfile host="app.diagrams.net" modified="2023-06-23T16:05:47.726Z" agent="Mozilla/5.0 (Windows NT 10.0; Win64; x64) AppleWebKit/537.36 (KHTML, like Gecko) Chrome/112.0.5615.183 Safari/537.36 WebCatalogPhoton/32.4.0" version="21.5.0" etag="vydj-UAQUxkbgX0RzCt5" type="github">
  <diagram name="Page-1" id="XTXm9iKPItY5fiN4ukhc">
    <mxGraphModel>
      <root>
        <mxCell id="0" />
        <mxCell id="1" parent="0" />
      </root>
    </mxGraphModel>
  </diagram>
</mxfile>
